<svg width="614" height="581" viewBox="0 0 614 581" fill="none" xmlns="http://www.w3.org/2000/svg">
<mask id="mask0_16_582" style="mask-type:alpha" maskUnits="userSpaceOnUse" x="0" y="0" width="614" height="581">
<rect width="614" height="581" fill="#D9D9D9"/>
</mask>
<g mask="url(#mask0_16_582)">
<path opacity="0.4" d="M360.43 268.344C353.204 264.178 348.019 264.093 344.874 268.004C341.644 271.915 340.114 278.546 340.114 287.812V337.969C340.114 347.49 339.264 355.396 337.478 361.687C335.693 368.233 332.718 372.824 328.638 375.544C324.643 378.35 319.202 379.03 312.317 377.755C305.602 376.564 297.186 372.994 287.155 367.213L282.395 364.408V324.877L288.43 328.363C295.656 332.528 300.416 333.038 302.796 330.063C305.346 327.087 306.622 320.967 306.622 311.7V267.494C306.622 255.932 307.727 246.836 310.022 240.205C312.232 233.489 316.737 229.238 323.453 227.368C316.737 217.762 312.232 208.24 310.022 198.974C307.812 189.708 306.707 179.336 306.707 167.775V123.568C306.707 114.302 305.432 106.651 302.881 100.785C300.501 95.0043 295.656 89.9886 288.515 85.823L282.48 82.3375V42.8069L287.24 45.6123C297.271 51.3931 305.687 57.599 312.402 64.1449C319.287 70.7759 324.728 77.7469 328.723 85.2279C332.888 92.709 335.863 100.7 337.563 109.286C339.349 117.618 340.199 126.544 340.199 136.065V186.222C340.199 195.489 341.814 203.99 344.959 211.556C348.189 219.122 353.374 225.073 360.515 229.153L360.43 268.344Z" fill="url(#paint0_linear_16_582)"/>
<path opacity="0.4" d="M178.349 123.058C185.574 127.224 190.759 127.309 193.905 123.398C197.135 119.488 198.665 112.857 198.665 103.591V53.4334C198.665 43.912 199.515 36.0059 201.3 29.715C203.085 23.169 205.975 18.5784 209.971 15.773C214.136 13.0526 219.576 12.3725 226.291 13.5627C233.177 14.8379 241.677 18.4084 251.708 24.2742L256.468 27.0796V66.6102L250.433 63.1247C243.207 58.9591 238.362 58.3641 235.812 61.3395C233.432 64.3999 232.242 70.5208 232.242 79.8721V124.078C232.242 135.555 231.137 144.736 228.842 151.367C226.631 158.083 222.126 162.334 215.411 164.204C222.126 173.811 226.631 183.332 228.842 192.598C231.052 201.865 232.157 212.236 232.157 223.798V268.004C232.157 277.27 233.347 284.836 235.727 290.702C238.277 296.568 243.122 301.669 250.348 305.749L256.383 309.235V348.765L251.623 345.96C241.592 340.179 233.092 333.888 226.206 327.342C219.491 320.796 214.051 313.826 209.885 306.259C205.89 298.863 203 290.872 201.3 282.371C199.515 274.04 198.665 265.114 198.665 255.592V205.435C198.665 196.169 197.05 187.668 193.905 180.101C190.674 172.535 185.489 166.585 178.349 162.504V123.058Z" fill="url(#paint1_linear_16_582)"/>
<path opacity="0.15" d="M384.996 23.9343L564.442 127.564L564.357 557.81L384.911 454.266L384.996 23.9343Z" fill="url(#paint2_linear_16_582)"/>
<path d="M351.249 80.2971L494.058 162.674V202.205L351.249 119.828V80.2971Z" fill="#587298"/>
<path opacity="0.2" d="M408.373 263.329L543.701 341.455V461.067L408.373 382.941V263.329Z" fill="url(#paint3_linear_16_582)"/>
<path opacity="0.15" d="M407.012 171.6L544.38 250.916V264.433L407.012 185.117V171.6Z" fill="white"/>
<path opacity="0.15" d="M407.012 198.804L525.764 267.324V280.841L407.012 212.321V198.804Z" fill="white"/>
<path opacity="0.15" d="M407.012 225.668L507.828 283.816V297.333L407.012 239.185V225.668Z" fill="white"/>
<path opacity="0.2" d="M384.996 23.9343L564.442 127.564V185.202L384.911 81.6576L384.996 23.9343Z" fill="url(#paint4_linear_16_582)"/>
<path opacity="0.2" d="M429.794 79.0221C429.794 87.7784 424.693 91.859 418.403 88.2034C412.113 84.5479 407.012 74.6015 407.012 65.8453C407.012 57.089 412.113 53.0084 418.403 56.6639C424.693 60.3195 429.794 70.3509 429.794 79.0221Z" fill="white"/>
<path opacity="0.15" d="M61.6372 155.703L614 474.499L613.915 905L61.5522 586.205L61.6372 155.703Z" fill="url(#paint5_linear_16_582)"/>
<path d="M25 261.798L167.723 344.175V383.705L25 301.414V261.798Z" fill="#EA8C4F"/>
<path opacity="0.15" d="M98.8689 370.444L415.768 553.39V566.907L98.8689 383.961V370.444Z" fill="white"/>
<path opacity="0.15" d="M98.8689 397.648L372.245 555.43V568.947L98.8689 411.165V397.648Z" fill="white"/>
<path opacity="0.15" d="M98.8689 424.596L331.528 558.915V572.432L98.8689 438.113V424.596Z" fill="white"/>
<path opacity="0.2" d="M47.0158 438.029L278.995 571.923V691.535L47.0158 557.556V438.029Z" fill="url(#paint6_linear_16_582)"/>
<path opacity="0.15" d="M70.3922 482.15L254.683 588.5V602.017L70.3922 495.667V482.15Z" fill="white"/>
<path opacity="0.15" d="M70.3922 509.354L217.961 594.536V608.053L70.3922 522.785V509.354Z" fill="white"/>
<path opacity="0.2" d="M61.6368 155.703L613.235 474.159V532.477L61.6368 214.106V155.703Z" fill="url(#paint7_linear_16_582)"/>
<path opacity="0.2" d="M121.736 219.547C121.736 228.304 116.635 232.384 110.345 228.729C104.055 225.073 98.9544 215.127 98.9544 206.37C98.9544 197.614 104.055 193.534 110.345 197.189C116.635 200.845 121.736 210.876 121.736 219.547Z" fill="white"/>
</g>
<defs>
<linearGradient id="paint0_linear_16_582" x1="409.36" y1="30.8759" x2="270.12" y2="272.239" gradientUnits="userSpaceOnUse">
<stop stop-color="#424C57"/>
<stop offset="0.903" stop-color="white" stop-opacity="0"/>
</linearGradient>
<linearGradient id="paint1_linear_16_582" x1="328.984" y1="14.5123" x2="189.727" y2="255.845" gradientUnits="userSpaceOnUse">
<stop stop-color="#414B56"/>
<stop offset="0.903" stop-color="white" stop-opacity="0"/>
</linearGradient>
<linearGradient id="paint2_linear_16_582" x1="567.816" y1="129.519" x2="396.208" y2="426.807" gradientUnits="userSpaceOnUse">
<stop stop-color="white"/>
<stop offset="1" stop-color="white" stop-opacity="0"/>
</linearGradient>
<linearGradient id="paint3_linear_16_582" x1="501.95" y1="317.285" x2="454.254" y2="399.909" gradientUnits="userSpaceOnUse">
<stop stop-color="white"/>
<stop offset="1" stop-color="white" stop-opacity="0"/>
</linearGradient>
<linearGradient id="paint4_linear_16_582" x1="446.521" y1="24.8282" x2="501.243" y2="179.739" gradientUnits="userSpaceOnUse">
<stop stop-color="#424C58"/>
<stop offset="1" stop-color="white" stop-opacity="0"/>
</linearGradient>
<linearGradient id="paint5_linear_16_582" x1="430.97" y1="368.856" x2="340.072" y2="526.362" gradientUnits="userSpaceOnUse">
<stop stop-color="white"/>
<stop offset="1" stop-color="white" stop-opacity="0"/>
</linearGradient>
<linearGradient id="paint6_linear_16_582" x1="188.887" y1="519.882" x2="141.192" y2="602.507" gradientUnits="userSpaceOnUse">
<stop stop-color="#434D58"/>
<stop offset="1" stop-color="white" stop-opacity="0"/>
</linearGradient>
<linearGradient id="paint7_linear_16_582" x1="198.501" y1="108.714" x2="407.973" y2="463.519" gradientUnits="userSpaceOnUse">
<stop stop-color="#546F94"/>
<stop offset="1" stop-color="white" stop-opacity="0"/>
</linearGradient>
</defs>
</svg>
